Predators *2010* [BluRay][1080p][ENG, POL]

General information:
Country: USA
Release: 7 July 2010
Genre: Action, Adventure, Sci-Fi, Thriller 
Director: Nimrod Antal
Screenplay: Michael Finch, Alex Litvak, Robert Rodriguez
Original Music: John Debney 
Cinematography by: Gyula Pados 
Duration: 1h 46mn
Language: English, Polish
Subtitles: English, Polish
Rating: 6.2/10 - 8172 votes 

Cast:
Adrien Brody  ...  Royce  
Topher Grace  ...  Edwin  
Alice Braga  ...  Isabelle  
Walton Goggins  ...  Stans  
Oleg Taktarov  ...  Nikolai  
Laurence Fishburne  ...  Noland  
Danny Trejo  ...  Cuchillo  
Louis Ozawa Changchien  ...  Hanzo  
Mahershalalhashbaz Ali  ...  Mombasa  
Carey Jones  ...  Tracker Predator  
Brian Steele  ...  Berserker Predator / Falconer Predator  
Derek Mears  ...  Classic Predator  

Plot:
A group of elite warriors are hunted by members of a merciless alien race known as Predators. 

Specifications:
General
Format                           : Matroska
Overall bit rate                 : 10.5 Mbps

Video
Format                           : AVC
Format/Info                      : Advanced Video Codec
Format profile                   : High@L4.1
Format settings, CABAC           : Yes
Format settings, ReFrames        : 3 frames
Muxing mode                      : Container profile=Unknown@4.1
Codec ID                         : V_MPEG4/ISO/AVC
Bit rate                         : 9 458 Kbps
Width                            : 1 920 pixels
Height                           : 1 080 pixels
Display aspect ratio             : 16:9
Frame rate                       : 23.976 fps

Audio 1
Format                           : AC-3
Format/Info                      : Audio Coding 3
Mode extension                   : CM (complete main)
Codec ID                         : A_AC3
Bit rate mode                    : Constant
Bit rate                         : 640 Kbps
Channel(s)                       : 6 channels
Channel positions                : Front: L C R, Side: L R, LFE
Sampling rate                    : 48.0 KHz
Stream size                      : 489 MiB (6%)
Title                            : English

Audio 2
Format                           : AC-3
Format/Info                      : Audio Coding 3
Mode extension                   : CM (complete main)
Codec ID                         : A_AC3
Bit rate mode                    : Constant
Bit rate                         : 448 Kbps
Channel(s)                       : 6 channels
Channel positions                : Front: L C R, Side: L R, LFE
Sampling rate                    : 48.0 KHz
Stream size                      : 342 MiB (4%)
Title                            : Polish
Language                         : Polish

Text 1
Format                           : UTF-8
Codec ID                         : S_TEXT/UTF8
Codec ID/Info                    : UTF-8 Plain Text
Title                            : English

Text 2
Format                           : UTF-8
Codec ID                         : S_TEXT/UTF8
Codec ID/Info                    : UTF-8 Plain Text
Title                            : Polish
Language                         : Polish
